<?xml version="1.0" encoding="UTF-8"?>
<svg width="100" height="26" viewBox="0 0 100 26" fill="none" xmlns="http://www.w3.org/2000/svg">
  <path d="M37.6 7.9c-0.8-0.9-2.2-1.4-4-1.4h-5.6c-0.4 0-0.7 0.3-0.8 0.7l-2.3 14.8c0 0.3 0.2 0.5 0.4 0.5h2.9c0.3 0 0.5-0.2 0.6-0.5l0.6-4.1c0-0.4 0.4-0.7 0.8-0.7h1.8c3.8 0 6-1.8 6.6-5.4 0.3-1.5 0-2.8-0.8-3.7zM35 11.3c-0.3 2.1-1.9 2.1-3.4 2.1h-0.9l0.6-3.9c0-0.2 0.2-0.3 0.4-0.3h0.4c1 0 2 0 2.5 0.6 0.3 0.3 0.4 0.9 0.3 1.5z" fill="#253B80"/>
  <path d="M53.1 11.2h-2.7c-0.2 0-0.4 0.2-0.4 0.3l-0.1 0.7-0.2-0.3c-0.6-0.8-1.8-1.1-3.1-1.1-2.9 0-5.3 2.2-5.8 5.2-0.2 1.5 0.1 3 0.9 4 0.8 0.9 1.9 1.3 3.2 1.3 2.3 0 3.6-1.5 3.6-1.5l-0.1 0.7c0 0.3 0.2 0.5 0.4 0.5h2.4c0.4 0 0.7-0.3 0.8-0.7l1.5-9.6c0.1-0.2-0.1-0.5-0.4-0.5zM49.2 16.1c-0.3 1.5-1.5 2.5-3.1 2.5-0.8 0-1.4-0.3-1.8-0.8-0.4-0.5-0.5-1.2-0.4-2.1 0.2-1.5 1.5-2.5 3-2.5 0.8 0 1.4 0.3 1.8 0.8 0.4 0.6 0.6 1.3 0.4 2.1z" fill="#253B80"/>
  <path d="M66.6 11.2h-2.7c-0.3 0-0.5 0.1-0.7 0.3l-3.9 5.7-1.6-5.5c-0.1-0.3-0.4-0.5-0.7-0.5h-2.6c-0.3 0-0.5 0.3-0.4 0.6l3.1 9.1-2.9 4.1c-0.2 0.3 0 0.7 0.4 0.7h2.7c0.3 0 0.5-0.1 0.7-0.3l9.3-13.4c0.2-0.4 0-0.8-0.4-0.8z" fill="#253B80"/>
  <path d="M84.1 7.9c-0.8-0.9-2.2-1.4-4-1.4h-5.6c-0.4 0-0.7 0.3-0.8 0.7l-2.3 14.8c0 0.3 0.2 0.5 0.4 0.5h2.9c0.4 0 0.7-0.3 0.8-0.7l0.6-4c0-0.4 0.4-0.7 0.8-0.7h1.8c3.8 0 6-1.8 6.6-5.4 0.2-1.5-0.1-2.8-0.9-3.7zM81.4 11.3c-0.3 2.1-1.9 2.1-3.4 2.1H77l0.6-3.9c0-0.2 0.2-0.3 0.4-0.3h0.4c1 0 2 0 2.5 0.6 0.3 0.3 0.4 0.9 0.3 1.5z" fill="#179BD7"/>
  <path d="M99.5 11.2h-2.7c-0.2 0-0.4 0.2-0.4 0.3l-0.1 0.7-0.2-0.3c-0.6-0.8-1.8-1.1-3.1-1.1-2.9 0-5.3 2.2-5.8 5.2-0.2 1.5 0.1 3 0.9 4 0.8 0.9 1.9 1.3 3.2 1.3 2.3 0 3.6-1.5 3.6-1.5l-0.1 0.7c0 0.3 0.2 0.5 0.4 0.5h2.4c0.4 0 0.7-0.3 0.8-0.7l1.5-9.6c0.1-0.2-0.1-0.5-0.4-0.5zM95.6 16.1c-0.3 1.5-1.5 2.5-3.1 2.5-0.8 0-1.4-0.3-1.8-0.8-0.4-0.5-0.5-1.2-0.4-2.1 0.2-1.5 1.5-2.5 3-2.5 0.8 0 1.4 0.3 1.8 0.8 0.4 0.6 0.6 1.3 0.4 2.1z" fill="#179BD7"/>
  <path d="M12.4 7.9c-0.8-0.9-2.2-1.4-4-1.4H2.8c-0.4 0-0.7 0.3-0.8 0.7L0 22c0 0.3 0.2 0.5 0.4 0.5h2.9c0.3 0 0.5-0.2 0.6-0.5l0.6-4.1c0-0.4 0.4-0.7 0.8-0.7h1.8c3.8 0 6-1.8 6.6-5.4 0.2-1.5-0.1-2.8-0.9-3.7zM9.7 11.3c-0.3 2.1-1.9 2.1-3.4 2.1h-0.9l0.6-3.9c0-0.2 0.2-0.3 0.4-0.3h0.4c1 0 2 0 2.5 0.6 0.3 0.3 0.4 0.9 0.3 1.5z" fill="#253B80"/>
  <path d="M28.2 11.2h-2.7c-0.2 0-0.4 0.2-0.4 0.3l-0.1 0.7-0.2-0.3c-0.6-0.8-1.8-1.1-3.1-1.1-2.9 0-5.3 2.2-5.8 5.2-0.2 1.5 0.1 3 0.9 4 0.8 0.9 1.9 1.3 3.2 1.3 2.3 0 3.6-1.5 3.6-1.5l-0.1 0.7c0 0.3 0.2 0.5 0.4 0.5h2.4c0.4 0 0.7-0.3 0.8-0.7l1.5-9.6c0.1-0.2-0.1-0.5-0.4-0.5zM24.3 16.1c-0.3 1.5-1.5 2.5-3.1 2.5-0.8 0-1.4-0.3-1.8-0.8-0.4-0.5-0.5-1.2-0.4-2.1 0.2-1.5 1.5-2.5 3-2.5 0.8 0 1.4 0.3 1.8 0.8 0.4 0.6 0.6 1.3 0.4 2.1z" fill="#179BD7"/>
</svg> 